<?xml version="1.0" encoding="UTF-8" standalone="no"?>
<!-- Created with Inkscape (http://www.inkscape.org/) -->

<svg
   version="1.1"
   id="svg2"
   width="1122.52"
   height="793.70667"
   viewBox="0 0 1122.52 793.70667"
   sodipodi:docname="AdobeStock_33953457.ai"
   xmlns:inkscape="http://www.inkscape.org/namespaces/inkscape"
   xmlns:sodipodi="http://sodipodi.sourceforge.net/DTD/sodipodi-0.dtd"
   xmlns="http://www.w3.org/2000/svg"
   xmlns:svg="http://www.w3.org/2000/svg">
  <defs
     id="defs6">
    <clipPath
       clipPathUnits="userSpaceOnUse"
       id="clipPath16">
      <path
         d="M 0,595.28 H 841.89 V 0 H 0 Z"
         id="path14" />
    </clipPath>
  </defs>
  <sodipodi:namedview
     id="namedview4"
     pagecolor="#ffffff"
     bordercolor="#000000"
     borderopacity="0.25"
     inkscape:showpageshadow="2"
     inkscape:pageopacity="0.0"
     inkscape:pagecheckerboard="0"
     inkscape:deskcolor="#d1d1d1" />
  <g
     id="g8"
     inkscape:groupmode="layer"
     inkscape:label="AdobeStock_33953457"
     transform="matrix(1.3333333,0,0,-1.3333333,0,793.70667)">
    <g
       id="g10">
      <g
         id="g12"
         clip-path="url(#clipPath16)">
        <g
           id="g18"
           transform="translate(201.1265,454.8511)">
          <path
             d="m 0,0 c -7.086,7.41 -14.958,16.472 -12.82,29.055 1.932,11.372 7.317,21.576 11.256,31.95 4.117,10.84 6.846,23.176 4.622,35.189 -2.566,13.857 -11.034,24.499 -20.676,30.917 -19.5,12.979 -45.477,9.206 -62.826,-7.495 -8.93,-8.596 -16.722,-22.46 -17.727,-37.035 -1.05,-15.217 6.161,-26.984 15.868,-34.715 10.31,-8.213 22.376,-12.715 34.204,-15.732 9.243,-2.36 16.708,16.335 5.766,19.241 -10.133,2.691 -20.5,6.598 -29.291,13.744 -8.878,7.218 -12.413,16.3 -7.579,28.721 8.414,21.618 34.235,24.385 49.717,16.028 8.546,-4.612 16.206,-13.486 17.124,-25.783 0.73,-9.77 -4.719,-20.307 -8.112,-28.623 -4.412,-10.818 -8.942,-22.393 -8.833,-34.89 0.14,-16.141 8.024,-27.974 17.717,-37.213 C -4.972,-22.95 6.654,-6.954 0,0"
             style="fill:#b20404;fill-opacity:1;fill-rule:nonzero;stroke:none"
             id="path20" />
        </g>
        <g
           id="g22"
           transform="translate(222.6133,424.1997)">
          <path
             d="m 0,0 c -0.063,0.071 -0.126,0.14 -0.189,0.208 -0.074,0.398 -0.187,0.781 -0.312,1.162 0.01,0.21 0.021,0.423 0.031,0.641 0.05,2.231 -1.258,4.53 -2.834,5.706 -1.735,1.296 -3.915,1.531 -5.898,1.014 -2.264,-0.591 -4.326,-2.14 -5.766,-4.229 -0.016,-0.022 -0.028,-0.044 -0.043,-0.068 -2.326,-2.075 -3.907,-5.232 -3.739,-8.685 0.054,-1.113 0.175,-2.297 0.619,-3.295 0.188,-0.422 0.344,-0.753 0.492,-1.054 0.123,-1.255 0.468,-2.456 1.304,-3.332 1.281,-1.342 1.569,-1.894 3.285,-2.449 0.562,-0.182 1.145,-0.266 1.732,-0.295 0.817,-0.393 1.678,-0.617 2.594,-0.646 2.252,-0.084 4.474,0.872 6.241,2.449 1.767,1.576 3.125,3.815 3.613,6.346 C 1.51,-4.562 1.386,-1.517 0,0"
             style="fill:#b20404;fill-opacity:1;fill-rule:nonzero;stroke:none"
             id="path24" />
        </g>
        <g
           id="g26"
           transform="translate(552.5811,37.1768)">
          <path
             d="m 0,0 c -32.962,0.58 -304.882,12.01 -304.882,12.01 l 108.485,-23.426 -126.236,20.608 c 0,0 -59.717,-6.882 -45.782,-19.847 13.523,-12.585 108.475,-19.824 214.339,-10.171 13.383,-3.862 71.138,-18.082 167.954,-8.523 C 125.16,-18.36 32.962,-0.581 0,0"
             style="fill:#a6a3c1;fill-opacity:1;fill-rule:nonzero;stroke:none"
             id="path28" />
        </g>
        <g
           id="g30"
           transform="translate(130.9932,45.4404)">
          <path
             d="M 0,0 H 579.787"
             style="fill:none;stroke:#000000;stroke-width:11.713;stroke-linecap:round;stroke-linejoin:round;stroke-miterlimit:4;stroke-dasharray:none;stroke-opacity:1"
             id="path32" />
        </g>
        <g
           id="g34"
           transform="translate(624.0469,197.6709)">
          <path
             d="M 0,0 C -0.604,11.771 -0.342,24.397 1.066,37.078 L -26.941,6.953 -51.452,-42.155 -21.849,-127.1 8.199,-62.974 19.788,-43.531 C 12.851,-36.23 7.124,-27.557 3.514,-16.399 2.343,-10.542 1.171,-5.857 0,0"
             style="fill:#e8dde1;fill-opacity:1;fill-rule:nonzero;stroke:none"
             id="path36" />
        </g>
        <g
           id="g38"
           transform="translate(699.0127,239.2119)">
          <path
             d="M 0,0 22.256,27.068 34.496,48.38 17.57,60.663 H -8.116 L -33.969,36.241 -65.595,4.471 -73.899,-4.463 c -1.409,-12.681 -1.67,-25.308 -1.067,-37.078 1.171,-5.857 2.343,-10.542 3.514,-16.399 3.61,-11.158 9.337,-19.831 16.274,-27.132 l 31.751,53.269 z"
             style="fill:#bb7e47;fill-opacity:1;fill-rule:nonzero;stroke:none"
             id="path40" />
        </g>
        <g
           id="g42"
           transform="translate(733.5088,287.5918)">
          <path
             d="M 0,0 C -3.147,13.212 -14.776,19.012 -27.403,17.124 -40.68,15.138 -53.084,6.895 -63.659,-0.875 c -14.705,-10.801 -28.004,-23.637 -40.404,-36.979 -25.535,-27.477 -49.722,-59.355 -63.652,-94.469 -5.517,-13.909 -10.597,-31.649 -3.847,-46.039 3.55,-7.566 17.368,-1.113 13.823,6.454 -1.812,3.867 -2.399,9.001 -2.082,13.5 0.459,6.56 2.13,12.816 4.25,18.928 5.669,16.35 14.491,31.492 23.978,45.884 20.449,31.024 46.024,60.851 76.095,82.937 5.905,4.336 11.221,7.739 17.015,10.524 2.396,1.152 4.872,2.133 7.396,2.961 -0.006,-0.043 2.256,0.565 2.72,0.659 0.548,0.113 3.022,0.369 3.072,0.426 0.881,0.015 1.761,-0.026 2.637,-0.114 0.369,-0.039 0.547,-0.046 0.632,-0.041 0.078,-0.046 0.318,-0.145 0.941,-0.34 0.422,-0.133 0.828,-0.305 1.234,-0.478 0.055,-0.033 0.117,-0.07 0.197,-0.119 0.454,-0.269 1.981,-1.619 2.014,-1.563 6.477,-7.139 4.412,-16.887 -0.71,-24.13 -6.936,-9.813 -16.776,-17.279 -25.295,-25.621 -10.471,-10.255 -18.508,-23.693 -26.512,-35.877 -19.186,-29.208 -35.665,-60.083 -50.055,-91.914 -8.687,-19.215 -16.256,-38.842 -23.618,-58.591 -1.34,-3.595 1.863,-7.05 5.315,-7.26 4.137,-0.251 7.471,2.677 8.744,6.404 11.182,32.734 25.693,64.614 41.749,95.218 8.087,15.416 16.835,30.484 26.183,45.169 8.167,12.828 16.635,26.618 27.092,37.727 C -19.704,-41.637 6.111,-25.641 0,0"
             style="fill:#070007;fill-opacity:1;fill-rule:nonzero;stroke:none"
             id="path44" />
        </g>
        <g
           id="g46"
           transform="translate(211.7334,331.0664)">
          <path
             d="m 0,0 18.742,21.161 28.893,16.957 c 0,0 3.905,24.43 3.905,26.773 0,2.342 12.494,84.337 12.494,84.337 l 17.96,31.235 c 0,0 16.399,6.247 18.742,6.247 h 11.526 c 0,0 32.985,15.619 35.328,15.619 2.342,0 38.526,10.933 42.3,11.713 3.773,0.781 62.34,0 62.34,0 l 28.113,-17.96 3.904,-14.057 L 339.69,134.391 384.201,47.604 394.354,0 377.173,-38.969 c 0,0 -25.77,-19.521 -32.016,-20.302 -6.247,-0.782 -32.016,-3.125 -32.016,-3.125 0,0 -15.62,-2.016 -15.62,-4.131 0,-2.116 -3.123,-25.543 -0.78,-23.981 2.343,1.563 15.618,-27.331 15.618,-27.331 l 48.502,-57.712 33.493,-27.406 5.465,-35.141 c 0,0 -7.027,-25.769 -7.808,-28.112 -0.782,-2.343 -18.742,-29.675 -21.084,-30.455 -2.343,-0.779 -53.101,-22.644 -56.225,-21.864 -3.124,0.78 -48.417,0.74 -52.32,-0.021 -3.904,-0.761 -20.303,7.829 -24.207,10.172 -3.905,2.343 -19.606,29.675 -19.606,29.675 0,0 -103.096,-17.96 -105.389,-18.741 -2.292,-0.782 -76.477,2.342 -76.477,2.342 l -43.731,20.303 c 0,0 -14.056,17.179 -14.056,20.303 0,3.124 -0.781,23.427 0,26.551 0.781,3.124 13.275,28.112 13.275,28.112 l 22.646,20.303 27.265,20.304 27.398,24.207 21.084,17.961 10.933,13.275 0.781,16.399 -54.663,11.713 -38.264,21.854 c 0,0 -15.618,22.657 -14.837,25 C -4.685,-26.474 0,0 0,0"
             style="fill:#f5f0f2;fill-opacity:1;fill-rule:nonzero;stroke:none"
             id="path48" />
        </g>
        <g
           id="g50"
           transform="translate(317.1548,513.0918)">
          <path
             d="m 0,0 c 12.172,-5.164 10.931,-27.337 10.933,-38.264 0.002,-16.055 -0.638,-31.394 -3.928,-46.854 -3.352,-15.754 -14.064,-28.047 -26.487,-38.246 -6.203,-5.091 -14.311,-9.967 -21.865,-12.509 -10.446,-3.517 -8.632,4.243 -8.631,13.027 0.003,16.337 2.91,31.76 4.515,47.88 1.365,13.708 2.406,28.783 6.591,41.715 3.598,11.112 9.093,27.604 19.309,34.657 10.011,6.911 17.037,1.683 26.591,2.498"
             style="fill:#ca7e47;fill-opacity:1;fill-rule:nonzero;stroke:none"
             id="path52" />
        </g>
        <g
           id="g54"
           transform="translate(493.6377,506.8442)">
          <path
             d="m 0,0 c 0,0 -20.303,-13.275 -21.084,-39.826 -0.781,-26.55 -17.962,-98.545 -5.467,-135.952 12.494,-37.406 9.78,-49.879 57.787,-53.817 48.008,-3.939 48.56,-0.327 67.229,22.097 18.669,22.426 19.45,45.072 14.765,66.156 -4.685,21.084 -46.073,81.682 -47.635,84.728 -1.563,3.046 -23.32,33.968 -23.32,33.968 z"
             style="fill:#ca7e47;fill-opacity:1;fill-rule:nonzero;stroke:none"
             id="path56" />
        </g>
        <g
           id="g58"
           transform="translate(386.3931,238.2158)">
          <path
             d="m 0,0 -67.676,5.467 c 0,0 -0.001,-19.522 21.864,-29.674 21.866,-10.152 51.54,-9.371 51.54,-9.371 L 0,-3.123"
             style="fill:#d4444c;fill-opacity:1;fill-rule:nonzero;stroke:none"
             id="path60" />
        </g>
        <g
           id="g62"
           transform="translate(472.5537,251.8301)">
          <path
             d="m 0,0 -10.006,-36.26 c 0,0 11.568,-10.152 14.691,-7.809 3.124,2.342 17.961,10.933 17.961,10.933 0,0 16.398,24.99 16.398,28.113 V 19.184 L 26.551,12.709 Z"
             style="fill:#d4444c;fill-opacity:1;fill-rule:nonzero;stroke:none"
             id="path64" />
        </g>
        <g
           id="g66"
           transform="translate(355.4189,204.624)">
          <path
             d="m 0,0 c 0,0 5.668,-32.271 -36.702,-53.868 -36.767,-18.741 -116.252,-21.414 -110.107,-6.248 6.145,15.167 55.211,42.466 58.446,42.169 3.235,-0.298 42.182,35.735 42.182,35.735 z"
             style="fill:#ca7e47;fill-opacity:1;fill-rule:nonzero;stroke:none"
             id="path68" />
        </g>
        <g
           id="g70"
           transform="translate(484.3047,12.9668)">
          <path
             d="m 0,0 c -5.264,3.563 -10.189,47.984 35.103,72.975 45.292,24.989 29.674,48.416 24.208,67.157 -5.467,18.742 7.072,32.798 7.072,32.798 l 47.348,-51.2 13.517,-35.266 -14.981,-46.215 c 0,0 -34.43,-27.332 -37.374,-28.543 C 71.948,10.496 16.488,-11.165 0,0"
             style="fill:#ca7e47;fill-opacity:1;fill-rule:nonzero;stroke:none"
             id="path72" />
        </g>
        <g
           id="g74"
           transform="translate(446.2998,352.4717)">
          <path
             d="m 0,0 c 0,-3.251 -7.162,-5.886 -15.997,-5.886 -8.836,0 -15.998,2.635 -15.998,5.886 0,3.25 7.162,5.885 15.998,5.885 C -7.162,5.885 0,3.25 0,0"
             style="fill:#ffd2d2;fill-opacity:1;fill-rule:nonzero;stroke:none"
             id="path76" />
        </g>
        <g
           id="g78"
           transform="translate(323.3823,364.7988)">
          <path
             d="m 0,0 c -0.891,-3.126 -8.5,-3.697 -16.998,-1.275 -8.497,2.421 -14.663,6.919 -13.771,10.045 0.891,3.126 8.5,3.697 16.998,1.275 C -5.274,7.623 0.891,3.125 0,0"
             style="fill:#ffd2d2;fill-opacity:1;fill-rule:nonzero;stroke:none"
             id="path80" />
        </g>
        <g
           id="g82"
           transform="translate(338.8174,383.5366)">
          <path
             d="M 0,0 C 5.908,10.681 10.092,23.598 6.221,35.653 5.15,38.987 2.692,39.784 0.127,39.203 -3.186,39.232 -7.041,37.028 -8.174,34.249 -12.502,23.632 -14.771,11.729 -13.596,0.266 -12.768,-7.814 -2.844,-5.143 0,0"
             style="fill:#020002;fill-opacity:1;fill-rule:nonzero;stroke:none"
             id="path84" />
        </g>
        <g
           id="g86"
           transform="translate(434.9697,374.5186)">
          <path
             d="M 0,0 C 0.067,0.131 0.123,0.263 0.189,0.395 2.046,1.806 3.319,3.847 3.174,6.16 4.068,9.463 4.393,12.829 4.452,16.217 4.95,20.978 4.785,25.844 4.218,30.769 3.192,39.663 -7.499,36.556 -10.014,30.242 -11.624,26.199 -12.6,21.939 -12.927,17.635 -14.134,11.674 -14.456,5.538 -13.609,-0.479 -12.452,-8.701 -2.612,-5.058 0,0"
             style="fill:#020002;fill-opacity:1;fill-rule:nonzero;stroke:none"
             id="path88" />
        </g>
        <g
           id="g90"
           transform="translate(268.9121,337.6484)">
          <path
             d="m 0,0 c -4.048,2.743 -9.104,3.766 -14.031,3.302 -3.042,0.706 -6.204,1.027 -9.369,1.068 -4.314,0.055 -7.372,-3.466 -7.774,-7.254 -1.478,-2.049 -2.26,-4.727 -1.082,-6.752 2.35,-4.041 5.756,-5.833 9.575,-6.431 4.03,-1.843 8.176,-1.938 11.86,-0.345 1.404,0.233 2.756,0.651 4.054,1.217 2.149,0.45 4.206,1.83 5.59,3.595 0.787,0.683 1.545,1.413 2.262,2.192 C 3.634,-6.645 3.001,-2.035 0,0"
             style="fill:#020002;fill-opacity:1;fill-rule:nonzero;stroke:none"
             id="path92" />
        </g>
        <g
           id="g94"
           transform="translate(383.7427,264.9951)">
          <path
             d="M 0,0 C -8.315,5.467 -17.373,10.479 -27.358,11.899 -39.104,13.569 -49.215,9.231 -57.7,1.272 c -2.604,-2.443 -2.889,-7.22 0.102,-9.446 3.343,-2.489 7.56,-0.766 10.234,1.759 11.582,10.946 27.5,1.414 38.35,-5.756 C -2.238,-16.646 7.361,-4.84 0,0"
             style="fill:#020002;fill-opacity:1;fill-rule:nonzero;stroke:none"
             id="path96" />
        </g>
        <g
           id="g98"
           transform="translate(593.8262,58.0166)">
          <path
             d="m 0,0 c -3.421,-5.538 -9.668,-11.389 -15.758,-15.853 -7.486,-5.486 -15.623,-9.722 -24.159,-13.228 -32.893,-13.511 -95.059,-21.389 -110.155,20.707 21.71,6.962 43.395,17.148 40.647,29.877 5.748,3.127 9.124,7.553 10.685,12.679 2.126,-0.727 4.707,-0.283 6.731,0.728 6.027,3.012 12.089,5.967 18.806,7.031 3.759,0.597 7.406,3.422 7.622,7.483 0.195,3.726 -3.336,6.465 -6.931,5.872 -4.556,-0.752 -8.869,-2.045 -13.069,-3.657 -6.223,22.021 -9.408,44.77 -15.493,66.836 -2.274,8.25 -5.021,16.44 -8.489,24.291 1.502,0.408 2.946,1.119 4.156,2.004 8.533,6.227 15.649,15.061 21.226,24.543 0.148,-2.196 0.47,-4.421 1.037,-6.684 3.064,-12.226 12.352,-22.303 21.381,-30.669 9.828,-9.107 20.939,-16.74 31.007,-25.578 C -19.815,96.779 -9.767,86.173 -1.883,73.944 12.902,51.014 14.57,23.575 0,0 m -193.298,-1.93 c -17.198,-3.785 -34.522,-7.067 -51.919,-9.797 -5.354,-0.838 -10.724,-1.643 -16.117,-2.189 -0.45,-0.044 -0.9,-0.076 -1.351,-0.113 -0.823,-0.045 -2.606,-0.16 -3.201,-0.218 -4.041,-0.399 -8.096,-0.715 -12.151,-0.924 -20.193,-1.037 -40.659,-0.241 -60.534,3.635 -16.961,3.307 -36.234,9.953 -47.254,24.03 -11.42,14.587 -11.284,35.661 -3.431,51.898 8.735,18.06 25.71,30.743 42.079,41.953 23.974,16.42 50.689,31.284 70.141,53.019 19.645,-15.693 46.274,-22.613 71.115,-21.959 0.255,0.007 0.509,0.027 0.762,0.05 3.243,-4.795 7.187,-9.143 11.616,-12.866 0.519,-0.437 1.062,-0.771 1.618,-1.027 -0.017,-0.471 -0.004,-0.95 0.07,-1.442 2.661,-17.782 3.033,-35.964 4.757,-53.911 -3.206,-2.969 -5.936,-6.267 -7.635,-9.914 -2.883,-0.135 -5.935,-0.886 -8.348,-1.141 -9.835,-1.036 -19.723,-1.501 -29.61,-1.392 -19.377,0.214 -39.476,3.889 -56.012,14.493 -4.136,2.652 -9.047,2.246 -12.695,-1.237 -2.798,-2.669 -4.807,-8.89 -0.725,-11.581 16.568,-10.921 35.05,-16.14 54.691,-18.068 9.233,-0.907 18.538,-0.878 27.793,-0.406 4.59,0.234 9.17,0.652 13.741,1.122 5.094,0.525 12.011,0.275 16.154,3.652 0.127,0.105 0.246,0.222 0.369,0.333 4.83,0.178 10.35,3.626 10.672,8.999 0.069,0.033 0.383,0.669 0.603,1.106 0.204,0.193 1.24,1.56 1.226,1.546 0.744,0.824 1.559,1.581 2.366,2.341 3.311,3.117 7.953,6.063 12.148,8.364 4.379,2.4 9.047,4.666 13.817,6.182 2.184,0.695 4.416,1.207 6.673,1.593 2.61,0.449 2.626,0.103 4.03,-0.394 1.25,-0.444 5.456,-4.037 7.453,-6.112 3.598,-3.737 6.702,-7.956 9.311,-12.43 2.481,-4.259 4.59,-8.815 5.605,-13.652 0.42,-2.001 0.449,-3.022 0.281,-4.828 0.088,0.954 -0.118,0.077 -0.268,-0.606 -0.066,-0.035 -0.132,-0.072 -0.226,-0.125 -2.126,-1.21 -4.03,-3.178 -5.04,-5.457 -4.211,-1.701 -7.763,-7.349 -6.895,-12.259 -0.181,-0.091 -0.489,-0.258 -0.999,-0.544 -1.195,-0.673 -2.428,-1.276 -3.666,-1.868 -3.182,-1.52 -6.478,-2.805 -9.784,-4.027 -15.274,-5.641 -34.17,-10.075 -51.23,-13.829 m -109.778,200.535 c -13.319,2.349 -26.233,6.671 -37.901,13.567 -5.72,3.381 -10.217,8.112 -15.31,12.266 -6.241,5.09 -11.65,10.996 -15.831,17.882 -7.79,12.831 -6.495,26.994 2.729,38.69 4.259,5.402 11.702,9.221 17.667,12.394 6.309,3.354 13.041,5.909 19.659,8.574 13.756,5.538 27.129,11.379 38.847,20.637 12.004,9.483 20.906,23.041 26.098,37.317 1.864,5.124 3.283,10.355 4.344,15.653 9.028,0.537 18.377,7.844 21.843,15.599 4.08,9.126 -9.347,11.422 -12.914,3.619 -0.513,-1.121 -1.935,-2.625 -3.802,-3.996 -0.862,-0.634 -2.56,-1.505 -3.174,-1.659 1.084,11.469 0.857,23.105 0.079,34.557 -0.773,11.371 -18.488,7.024 -17.803,-2.855 2.042,-29.462 1.041,-62.693 -22.247,-84.159 -5.833,-5.376 -12.722,-9.306 -19.926,-12.629 0.947,9.262 1.428,18.599 2.269,27.849 1.579,17.391 3.605,34.777 7.109,51.897 3.118,15.235 6.959,30.196 15.603,42.524 0.783,1.117 2.344,2.987 4.749,5.123 0.073,0.066 0.125,0.112 0.183,0.164 0.046,0.034 0.081,0.059 0.135,0.098 0.578,0.422 1.188,0.798 1.796,1.172 0.318,0.194 0.645,0.375 0.976,0.549 -0.589,-0.316 0.816,0.335 1.203,0.475 0.359,0.13 0.725,0.241 1.093,0.345 -0.169,-0.058 1.096,0.242 1.414,0.284 0.728,0.097 1.461,0.126 2.193,0.155 0.161,0.006 0.289,0.012 0.397,0.019 0.107,-0.01 0.235,-0.021 0.39,-0.033 3.807,-0.292 5.649,-0.988 8.782,-2.318 3.127,-1.328 6.568,-0.496 9.297,1.343 2.646,-0.294 5.525,0.85 7.79,2.343 -0.984,-0.649 1.979,1.22 2.314,1.421 1.251,0.754 2.527,1.466 3.804,2.174 3.045,1.685 6.177,3.21 9.335,4.668 6.597,3.047 13.409,5.506 20.348,7.648 15.499,4.785 31.521,7.581 47.729,8.184 22.913,0.852 48.44,-3.81 65.358,-19.479 -3.296,-2.727 -5.04,-7.036 -2.317,-10.712 4.491,-6.062 10.258,-9.557 16.58,-13.494 6.83,-4.251 13.341,-9.994 19.601,-15.081 12.444,-10.11 23.782,-21.733 33.195,-34.723 13.933,-19.227 25.826,-41.45 34.519,-63.534 7.359,-18.692 13.441,-41.314 7.909,-61.293 -6.359,-22.969 -29.3,-33.894 -51.148,-38.064 -14.705,-2.807 -30.119,-0.062 -42.764,7.911 -13.394,8.443 -21.694,22.466 -26.089,37.36 -6.455,21.881 -2.564,46.312 -0.393,68.578 2.481,25.431 5.598,50.904 4.233,76.501 -0.606,11.373 -18.391,7.466 -17.858,-2.418 0.553,-10.287 0.401,-20.551 -0.122,-30.802 -6.875,-1.225 -18.477,5.689 -18.832,13.081 -0.442,9.249 -14.926,6.069 -14.515,-1.966 0.781,-15.323 17.826,-26.26 32.451,-24.785 -1.749,-22.217 -4.665,-44.394 -5.642,-66.638 -1.173,-26.708 4.164,-54.236 23.548,-73.945 3.795,-3.862 7.921,-7.135 12.297,-9.868 -4.633,-4.073 -9.931,-7.876 -15.648,-10.112 -0.232,0.969 -0.488,1.935 -0.776,2.893 -2.181,7.269 -6.684,13.37 -12.549,18.091 -7.476,6.018 -16.55,7.928 -25.411,10.806 -7.608,2.471 -16.142,3.895 -24.132,3.292 -9.424,-0.713 -20.593,-5.935 -20.92,-16.739 -0.251,-8.277 6.305,-13.399 12.916,-18.552 -13.574,-6.258 -23.65,-18.118 -25.778,-33.836 -0.817,-6.035 -0.387,-11.997 1.035,-17.698 -19.08,1.713 -38.041,6.785 -52.7,19.238 0.566,0.889 1.116,1.791 1.658,2.703 13.066,-0.601 26.147,-1.011 39.16,-2.342 9.895,-1.013 15.699,16.45 4.307,17.609 -27.447,2.788 -55.187,1.672 -82.44,6.477 m 187.802,-41.853 c -0.335,-0.245 -0.649,-0.524 -0.95,-0.819 -0.576,1.005 -1.195,2.033 -1.853,3.023 0.16,0.544 0.266,1.115 0.306,1.711 0.661,9.813 2.108,20.101 2.042,30.21 9.973,3.479 18.682,9.429 26.544,16.486 0.82,-6.77 -1.752,-14.561 -4.159,-20.323 -4.759,-11.393 -12.364,-23.306 -21.93,-30.288 m -54.8,-76.827 c -1.237,15.843 -1.695,31.82 -3.999,47.467 -0.479,3.253 -2.477,4.933 -4.972,5.423 0.147,2.203 -0.617,4.403 -2.71,6.164 -9.344,7.858 -16.078,20.347 -15.165,32.797 0.906,12.356 9.013,19.216 20.635,21.848 0.437,-1.021 0.78,-2.089 0.983,-3.224 2.003,-11.241 19.244,-5.174 17.474,4.587 -2.559,14.104 -13.818,20.601 -22.939,29.999 0.735,0 1.462,-0.02 2.145,-0.039 6.33,-0.168 12.302,-2.103 18.387,-3.613 12.192,-3.021 22.497,-8.894 25.492,-21.491 2.836,-11.931 0.408,-25.353 -0.709,-37.607 -2.607,-2.957 -3.46,-7.245 -0.491,-10.923 11.542,-14.3 16.335,-33.918 20.632,-51.376 2.267,-9.208 4.177,-18.506 6.15,-27.789 -5.536,7.712 -12.315,14.009 -18.542,16.954 -12.485,5.903 -28.329,-1.573 -39.42,-7.561 -0.94,-0.507 -1.934,-1.052 -2.951,-1.616 m 157.279,35.481 c -13.043,12.375 -28.29,22.211 -41.013,34.923 -5.101,5.096 -9.928,11.127 -12.271,18.002 -2.941,8.633 0.137,16.492 5.761,23.315 2.779,3.372 4.861,8.395 1.179,12.068 -3.242,3.235 -9.366,2.266 -12.202,-1.075 -0.235,-0.277 -0.458,-0.562 -0.688,-0.842 0.188,1.579 0.29,3.154 0.32,4.72 8.264,-0.941 16.777,-0.62 25.224,0.828 25.47,4.364 50.457,18.557 62.252,42.111 16.737,33.427 0.345,75.87 -15.212,106.45 -9.867,19.392 -21.34,38.577 -35.45,55.156 -8.314,9.771 -17.78,18.519 -27.8,26.507 -4.978,3.969 -10.07,7.866 -15.147,11.684 -0.094,0.071 -0.194,0.139 -0.289,0.208 0.492,1.67 0.407,3.475 -0.539,5.256 -17.527,33.016 -54.145,43.383 -89.3,42.599 -33.556,-0.746 -68.885,-10.554 -97.047,-29.042 -14.423,5.163 -29.221,2.533 -40.347,-8.803 -11.835,-12.059 -17.318,-29.712 -21.24,-45.71 -7.846,-32.011 -7.92,-64.772 -12.323,-97.22 -14.169,-5.697 -27.595,-12.102 -39.191,-22.263 -12.132,-10.631 -17.589,-27.679 -16.1,-43.369 1.421,-14.977 11.759,-28.18 22.414,-37.999 10.591,-9.76 21.659,-18.103 35.03,-23.702 12.893,-5.397 26.935,-8.122 40.741,-9.885 3.441,-0.439 6.888,-0.794 10.34,-1.099 -1.933,-2.197 -2.951,-4.974 -2.143,-7.585 -9.911,-11.624 -22.627,-21.002 -35.129,-29.479 -18.939,-12.838 -38.793,-24.423 -56.106,-39.502 -16.629,-14.484 -28.782,-32.799 -32.15,-54.83 -3.125,-20.443 3.367,-40.834 18.9,-54.631 15.081,-13.394 35.903,-19.147 55.341,-22.384 20.13,-3.352 40.713,-3.456 61.034,-2.214 2.055,0.126 4.11,0.283 6.162,0.45 0.977,0.079 1.952,0.168 2.928,0.257 0.691,0.063 1.002,0.098 1.104,0.118 1.94,0.08 3.881,0.241 5.809,0.45 5.793,0.629 11.559,1.528 17.312,2.443 17.757,2.825 35.429,6.251 52.98,10.157 3.193,0.71 11.566,2.425 21.76,5.048 12.619,-40.031 59.705,-47.106 96.245,-41.192 20.843,3.372 41.152,10.548 58.96,21.879 19.011,12.097 31.682,29.254 37.595,50.917 10.362,37.951 -10.967,71.909 -37.704,97.28"
             style="fill:#020002;fill-opacity:1;fill-rule:nonzero;stroke:none"
             id="path100" />
        </g>
      </g>
    </g>
  </g>
</svg>
