<?xml version="1.0" encoding="utf-8"?>
<!-- Generator: Adobe Illustrator 27.5.0, SVG Export Plug-In . SVG Version: 6.00 Build 0)  -->
<svg version="1.1" id="Layer_1" xmlns="http://www.w3.org/2000/svg" xmlns:xlink="http://www.w3.org/1999/xlink" x="0px" y="0px"
	 viewBox="0 0 4000 2000" style="enable-background:new 0 0 4000 2000;" xml:space="preserve">
<style type="text/css">
	.st0{opacity:0.2;}
	.st1{fill:#734A40;}
	.st2{fill:#F69554;}
	.st3{fill:#CB683B;}
	.st4{fill:#FABC7C;}
</style>
<g class="st0">
	<g>
		<rect class="st1" width="2000" height="2000"/>
		<g>
			<path class="st2" d="M202.31,0.02c2.38,1.71,5.04,2.98,7.92,3.7c6.71,1.72,13.7,0.23,20.3-3.7h0.03
				c0.01-0.01,0.02-0.01,0.03-0.02h-0.03h-28.28h-0.02c0.01,0.01,0.02,0.01,0.02,0.02H202.31z"/>
			<path class="st2" d="M87.22,604c-4.06,19.11,2.44,39.94,19.44,53.22c19.33,15.11,47.28,14.78,66.28-0.78
				c25-20.5,26.06-57.5,3.61-79.44c22.44,21.94,59.39,20.06,79.33-5.44c15.11-19.33,14.78-47.28-0.78-66.28
				c-13.67-16.67-34.67-22.67-53.67-18.22c-20.94,4.94-42.89-2.11-58.28-17.11L0,330.06v149l68.72,67.11
				C84.11,561.17,91.67,583,87.22,604z"/>
			<path class="st2" d="M195.39,1423.02c14.78-3.65,25.01-15.2,27.91-28.67c3.21-14.85,14.39-26.72,28.64-31.96l141.56-52.04
				c14.26-5.24,30.46-3.44,42.52,5.8c10.93,8.38,26.21,10.55,39.83,3.76c15.52-7.73,23.81-25.66,19.65-42.49
				c-5.48-22.17-28.72-34.09-49.55-26.44c20.83-7.66,30.82-31.8,20.63-52.24c-7.73-15.52-25.66-23.81-42.49-19.65
				c-14.78,3.65-25,15.2-27.91,28.67c-3.21,14.85-14.39,26.72-28.64,31.96l-141.56,52.04c-14.26,5.24-30.46,3.44-42.52-5.8
				c-10.94-8.38-26.21-10.55-39.83-3.76c-15.52,7.73-23.81,25.66-19.65,42.49c5.48,22.17,28.72,34.09,49.55,26.44
				c-20.83,7.66-30.82,31.8-20.63,52.24C160.63,1418.89,178.56,1427.18,195.39,1423.02z"/>
			<path class="st3" d="M1393.25,847.27c11.66,9.79,27.02,11.24,39.61,5.66c13.89-6.16,30.06-4.12,42.7,4.31l125.46,83.7
				c12.64,8.43,20.73,22.58,20.38,37.77c-0.32,13.77,6.92,27.39,20.43,34.4c15.39,7.98,34.76,4.11,45.91-9.17
				c14.68-17.49,10.62-43.3-7.84-55.61c18.46,12.32,43.85,6.16,54.36-14.12c7.98-15.39,4.11-34.76-9.17-45.91
				c-11.66-9.79-27.02-11.24-39.61-5.66c-13.89,6.16-30.06,4.12-42.7-4.31l-125.46-83.7c-12.64-8.43-20.73-22.58-20.38-37.77
				c0.32-13.77-6.92-27.39-20.43-34.4c-15.39-7.98-34.76-4.11-45.91,9.17c-14.68,17.49-10.62,43.3,7.84,55.61
				c-18.46-12.31-43.85-6.16-54.36,14.12C1376.1,816.76,1379.97,836.13,1393.25,847.27z"/>
			<path class="st3" d="M1046.44,1758.75c13.43-10.86,14.74-31.16,2.11-43.67c-9.59-9.5-24.88-11.11-36.24-3.83
				c-9.98,6.4-14.62,17.47-13.38,28.12c1.36,11.75-3.9,23.3-13.1,30.73l-91.28,73.84c-9.19,7.44-21.59,10.17-32.79,6.39
				c-10.16-3.43-21.96-1.21-30.3,7.21c-9.5,9.59-11.11,24.88-3.83,36.24c9.6,14.97,29.72,17.92,43.15,7.06
				c-13.43,10.86-14.74,31.16-2.11,43.67c9.59,9.5,24.88,11.11,36.24,3.83c9.98-6.4,14.62-17.47,13.38-28.12
				c-1.36-11.75,3.9-23.3,13.1-30.73l91.28-73.84c9.19-7.44,21.59-10.17,32.79-6.39c10.16,3.43,21.96,1.21,30.3-7.21
				c9.5-9.59,11.11-24.88,3.83-36.24C1079.99,1750.84,1059.87,1747.88,1046.44,1758.75z"/>
			<path class="st3" d="M990.34,450.33c13.43-10.86,14.74-31.16,2.11-43.67c-9.59-9.5-24.88-11.11-36.24-3.83
				c-9.98,6.4-14.62,17.47-13.38,28.12c1.36,11.75-3.9,23.3-13.1,30.73l-91.28,73.84c-9.19,7.44-21.59,10.17-32.79,6.39
				c-10.16-3.43-21.96-1.21-30.3,7.21c-9.5,9.59-11.11,24.88-3.83,36.24c9.6,14.97,29.72,17.92,43.15,7.06
				c-13.43,10.86-14.74,31.16-2.11,43.67c9.59,9.5,24.88,11.11,36.24,3.83c9.98-6.4,14.62-17.47,13.38-28.12
				c-1.36-11.75,3.9-23.3,13.1-30.73l91.28-73.84c9.19-7.44,21.59-10.17,32.79-6.39c10.16,3.43,21.96,1.21,30.3-7.21
				c9.5-9.59,11.11-24.88,3.83-36.24C1023.89,442.42,1003.77,439.46,990.34,450.33z"/>
			<path class="st3" d="M1665.14,1670.31c-7.39-11.29-22.01-16.07-34.64-11.32c-16.64,6.26-23.74,25.31-15.92,40.72
				c-7.82-15.4-27.39-20.93-42.26-11.19c-11.29,7.39-16.07,22.01-11.32,34.64c4.17,11.09,14.03,17.95,24.71,18.97
				c11.77,1.12,21.97,8.69,27.32,19.23l53.14,104.7c5.35,10.55,5.44,23.24-0.61,33.4c-5.48,9.22-5.77,21.22,0.72,31.14
				c7.39,11.29,22.01,16.07,34.64,11.32c16.64-6.26,23.74-25.31,15.92-40.72c7.82,15.4,27.39,20.93,42.27,11.19
				c11.29-7.39,16.07-22.01,11.32-34.64c-4.17-11.09-14.03-17.95-24.71-18.96c-11.77-1.12-21.97-8.69-27.32-19.23l-53.14-104.7
				c-5.35-10.55-5.44-23.24,0.61-33.4C1671.35,1692.23,1671.64,1680.22,1665.14,1670.31z"/>
			<path class="st3" d="M589.98,482.13c11.29-7.39,16.07-22.01,11.32-34.64c-4.17-11.09-14.03-17.95-24.71-18.96
				c-11.77-1.12-21.97-8.69-27.32-19.23l-53.14-104.7c-5.35-10.55-5.44-23.24,0.61-33.4c5.48-9.22,5.77-21.22-0.72-31.14
				c-7.39-11.29-22.01-16.07-34.64-11.32c-16.64,6.26-23.74,25.31-15.92,40.72c-7.82-15.4-27.39-20.93-42.26-11.19
				c-11.29,7.39-16.07,22.01-11.32,34.64c4.17,11.09,14.03,17.95,24.71,18.96c11.77,1.12,21.97,8.69,27.32,19.23l53.14,104.7
				c5.35,10.55,5.44,23.24-0.61,33.4c-5.48,9.22-5.77,21.22,0.72,31.14c7.39,11.29,22.01,16.07,34.64,11.32
				c16.64-6.26,23.74-25.31,15.92-40.72C555.53,486.34,575.11,491.87,589.98,482.13z"/>
			<path class="st3" d="M137.89,896.33c3.89,2.72,8.22,5.06,13.06,6.83c22.83,8.39,49.06,1.22,64.22-17.78
				c21.06-26.33,14.89-64.5-12.5-83c-26.11-17.67-61.61-10.83-79.28,15.28c18.89-27.89,9.78-66.5-20.89-82.61
				c-23.22-12.28-52.67-6.61-69.72,13.44c-22.44,26.39-16.56,65.56,11.33,84.44c0.06,0,0.11,0.06,0.17,0.11
				c8.83,5.89,11.5,17.61,5.56,26.39L0,933.06v133.89L111.94,901.5C117.72,892.94,129.44,890.44,137.89,896.33z"/>
			<path class="st2" d="M279.33,1768.72c-1.33,4.56-2.11,9.44-2.22,14.61c-0.61,24.28,14.67,46.83,37.5,55.06
				c31.78,11.44,65.83-6.72,74.56-38.61c8.33-30.39-9.61-61.78-40-70.11c32.5,8.89,66.06-12.17,71.5-46.39
				c4.06-25.94-10.78-52-35.22-61.67c-32.22-12.72-67.44,5.5-76.28,37.94c-0.06,0.06-0.06,0.17-0.06,0.22
				c-2.78,10.22-13,16.5-23.22,13.72L7.44,1597.39c-2.83-0.78-5.33-2.17-7.44-4v79.78l266.11,72.72
				C276.06,1748.56,282.22,1758.83,279.33,1768.72z"/>
			<path class="st3" d="M1323.67,1851.94c3.56,1.22,7.39,2.06,11.44,2.5c25.22,2.89,49.94-11.61,59.39-35.17
				c12.67-31.33-4.22-66.06-35.78-76c-30.11-9.39-62.11,7.33-71.56,37.44c9.44-30.11-7.33-62.11-37.39-71.56
				c-31.56-9.89-65.22,9-72.78,41.89c-5.39,23.72,5.33,48.72,26.11,61.33c4.39,2.67,8.89,4.67,13.44,6
				c9.89,2.89,15.22,13.61,12.17,23.44L1179.17,2000h78.56l42.56-135.72C1303.39,1854.44,1313.89,1848.67,1323.67,1851.94z"/>
			<path class="st3" d="M713.83,1529.74c-4.44-28.07-23.85-43.64-47.81-52.63c-33.6-12.61-198.84-45.36-164.86,32.32
				c16.42,37.54,62.62,28.73,84.92,59.84c27.5,38.37-11.8,92.69,29.93,124.35c55.79,42.32,79.7-90.51,91.16-122.25
				C711.7,1558.8,716.31,1545.42,713.83,1529.74z"/>
			
				<ellipse transform="matrix(0.7228 -0.691 0.691 0.7228 -771.6591 923.7093)" class="st3" cx="765.66" cy="1423.8" rx="69.66" ry="44.48"/>
			
				<ellipse transform="matrix(0.8794 -0.476 0.476 0.8794 -636.037 566.9824)" class="st3" cx="801.21" cy="1539.04" rx="69.66" ry="44.48"/>
			<path class="st3" d="M627.91,1438.76c24.21,4.16,49.12-23.2,55.64-61.12c6.52-37.92-7.82-72.03-32.03-76.19
				c-24.21-4.16-49.12,23.2-55.64,61.12C589.36,1400.48,603.7,1434.6,627.91,1438.76z"/>
			
				<ellipse transform="matrix(0.0767 -0.9971 0.9971 0.0767 -933.4415 2302.2581)" class="st3" cx="776.39" cy="1655.14" rx="35.13" ry="55.02"/>
			<path class="st4" d="M1032.76,1043.51c58.52-38.45-58.69-105.36-84.78-126.75c-10.33-8.47-21.41-17.28-37.02-20.19
				c-27.94-5.2-49.1,7.9-65.57,27.48c-23.11,27.46-109.18,172.27-24.6,166.19c40.87-2.94,48-49.43,84.77-60.05
				C950.9,1017.09,988.98,1072.28,1032.76,1043.51z"/>
			
				<ellipse transform="matrix(0.9121 -0.4099 0.4099 0.9121 -260.1715 410.9231)" class="st4" cx="828.42" cy="812.33" rx="44.48" ry="69.66"/>
			
				<ellipse transform="matrix(0.9879 -0.1549 0.1549 0.9879 -115.1804 156.9032)" class="st4" cx="948.92" cy="817.31" rx="44.48" ry="69.66"/>
			
				<ellipse transform="matrix(0.4889 -0.8723 0.8723 0.4889 -420.5061 1108.4684)" class="st4" cx="735.74" cy="913.1" rx="44.48" ry="69.66"/>
			
				<ellipse transform="matrix(0.4054 -0.9142 0.9142 0.4054 -179.5897 1482.9034)" class="st4" cx="1050.06" cy="879.5" rx="55.02" ry="35.13"/>
			<path class="st4" d="M1413.2,355.07c28.27,13.28,50.35-14.98,78.76-8.34c35.04,8.19,39.79,59.09,79.63,56.28
				c53.25-3.76,0.24-91.94-9.14-115.9c-3.71-9.49-7.79-19.47-17.09-27.22c-16.64-13.87-35.6-13.04-53.85-6.17
				C1465.91,263.36,1354.69,327.59,1413.2,355.07z"/>
			
				<ellipse transform="matrix(0.0884 -0.9961 0.9961 0.0884 1214.8875 1673.6956)" class="st4" cx="1521.87" cy="173.09" rx="53.11" ry="33.91"/>
			
				<ellipse transform="matrix(0.3479 -0.9375 0.9375 0.3479 836.0262 1644.5459)" class="st4" cx="1600.15" cy="221.32" rx="53.11" ry="33.91"/>
			<path class="st4" d="M1394.95,160.26c-15.98,9.77-16.52,37.98-1.21,63c15.31,25.02,40.67,37.38,56.65,27.6
				c15.98-9.77,16.52-37.98,1.21-63C1436.29,162.84,1410.93,150.49,1394.95,160.26z"/>
			
				<ellipse transform="matrix(0.8006 -0.5992 0.5992 0.8006 147.9208 1045.208)" class="st4" cx="1644.23" cy="300.37" rx="41.94" ry="26.78"/>
			<path class="st2" d="M774.69,278.42c-13.57,16.12-64.11,101.16-14.45,97.6c24-1.72,28.19-29.03,49.78-35.26
				c26.63-7.69,48.99,24.72,74.7,7.82c34.37-22.58-34.46-61.87-49.79-74.44c-6.07-4.98-12.57-10.15-21.74-11.85
				C796.79,259.23,784.37,266.92,774.69,278.42z"/>
			<path class="st2" d="M747.96,175.49c-13.16,5.91-16.32,27.41-7.06,48.02c9.26,20.61,27.44,32.52,40.6,26.61
				c13.16-5.91,16.32-27.41,7.06-48.02C779.3,181.49,761.12,169.58,747.96,175.49z"/>
			
				<ellipse transform="matrix(0.9879 -0.1549 0.1549 0.9879 -23.3374 132.0632)" class="st2" cx="835.49" cy="215.74" rx="26.12" ry="40.91"/>
			
				<ellipse transform="matrix(0.4889 -0.8723 0.8723 0.4889 125.7524 758.6207)" class="st2" cx="710.3" cy="271.99" rx="26.12" ry="40.91"/>
			
				<ellipse transform="matrix(0.4054 -0.9142 0.9142 0.4054 301.5337 968.0643)" class="st2" cx="894.89" cy="252.25" rx="32.31" ry="20.63"/>
			<path class="st4" d="M1404.51,1478.85c25.87,17.73,13.64,60.57,46.89,70.88c44.44,13.78,29.26-74.6,29.22-97.02
				c-0.02-8.88-0.17-18.28-5.28-27.52c-9.13-16.53-24.79-21.85-41.79-22.03c-23.84-0.26-134.48,16.74-95.65,57.56
				C1356.67,1480.45,1383.53,1464.47,1404.51,1478.85z"/>
			
				<ellipse transform="matrix(0.4437 -0.8962 0.8962 0.4437 -382.0165 2079.1213)" class="st4" cx="1483.7" cy="1347.27" rx="46.29" ry="29.56"/>
			
				<ellipse transform="matrix(0.6642 -0.7475 0.7475 0.6642 -540.4968 1619.035)" class="st4" cx="1532.03" cy="1411.19" rx="46.29" ry="29.56"/>
			<path class="st4" d="M1384.67,1296.73c-16.07,2.89-25.42,25.63-20.9,50.79c4.52,25.16,21.21,43.22,37.28,40.33
				s25.42-25.63,20.9-50.79C1417.43,1311.89,1400.74,1293.84,1384.67,1296.73z"/>
			
				<ellipse transform="matrix(0.9634 -0.268 0.268 0.9634 -342.7554 468.0614)" class="st4" cx="1542.85" cy="1489.34" rx="36.56" ry="23.34"/>
			<path class="st2" d="M55.94,2000h65.33c-9.33-4.94-19.5-9.06-31.78-9.22C76.33,1990.61,65.28,1994.06,55.94,2000z"/>
			<path class="st2" d="M32.78,1979.56c20.39-13.72,19.5-50.72-2-82.61C22,1883.89,11.17,1873.72,0,1867.22v114.72
				C12.06,1986.11,23.72,1985.61,32.78,1979.56z"/>
			
				<ellipse transform="matrix(0.9474 -0.3201 0.3201 0.9474 -604.2694 136.639)" class="st2" cx="113.46" cy="1906.25" rx="44.48" ry="69.66"/>
			<path class="st2" d="M257.72,1959c7.44-29.5-1.78-57.22-20.61-61.94c-18.78-4.72-40.06,15.28-47.5,44.72
				c-6.28,25-0.67,48.67,12.67,58.22h28.28C242.5,1993,252.94,1977.94,257.72,1959z"/>
			<path class="st2" d="M1971.94,262.83c4.06-19.06-2.5-39.94-19.44-53.22c-19.33-15.11-47.33-14.78-66.28,0.78
				c-25,20.5-26.11,57.5-3.61,79.44c-22.5-21.94-59.44-20-79.33,5.44c-15.11,19.33-14.83,47.33,0.78,66.28
				c13.67,16.67,34.67,22.72,53.61,18.22c20.94-4.94,42.94,2.11,58.28,17.17l84.06,82.11v-149l-9.56-9.33
				C1975.06,305.67,1967.44,283.89,1971.94,262.83z"/>
			<path class="st2" d="M1301.18,1140.96c10.52-18.76,29.61-31.74,51.08-32.9c19.47-1.05,37.91-12.77,46.32-32.61
				c9.58-22.6,2-49.52-17.97-63.8c-26.3-18.81-62.28-10.24-77.64,17.16c15.36-27.41,3.89-62.57-25.88-75.19
				c-22.6-9.58-49.52-2-63.8,17.97c-12.54,17.53-12.91,39.37-3.65,56.53c10.22,18.93,9.11,41.98-1.4,60.75l-104.4,186.27
				c-10.52,18.76-29.61,31.74-51.08,32.9c-19.47,1.05-37.91,12.77-46.32,32.61c-9.58,22.6-2,49.52,17.97,63.8
				c26.3,18.81,62.28,10.24,77.64-17.16c-15.36,27.41-3.89,62.57,25.88,75.19c22.6,9.58,49.52,2,63.8-17.97
				c12.54-17.53,12.91-39.37,3.64-56.53c-10.22-18.93-9.11-41.98,1.4-60.74L1301.18,1140.96z"/>
			<path class="st3" d="M1862.11,1103.61c-3.11-2.17-6.5-4.11-10.22-5.72c-23.33-9.94-51.17-3.17-67.06,16.67
				c-21.06,26.39-14.89,64.5,12.5,83.06c26.11,17.67,61.61,10.83,79.28-15.28c-17.67,26.11-10.83,61.61,15.28,79.28
				c27.39,18.5,65.11,10.06,81.72-19.28c12-21.17,8.89-48.17-7.39-66.22c-3.44-3.83-7.17-7-11.17-9.61
				c-8.61-5.61-10.67-17.44-4.89-25.94l49.83-73.61V933.06l-111.94,165.44C1882.28,1107,1870.56,1109.56,1862.11,1103.61z"/>
			<path class="st2" d="M1994.28,1574.56c1.06-3.67,1.78-7.5,2.06-11.56c1.94-25.33-13.5-49.5-37.33-58.11
				c-31.78-11.44-65.89,6.72-74.61,38.61c-8.28,30.39,9.61,61.78,40,70.11c-30.39-8.33-61.78,9.61-70.11,40
				c-8.67,31.89,11.44,64.89,44.61,71.17c23.83,4.56,48.44-7.11,60.33-28.33c2.5-4.5,4.28-9.06,5.44-13.67
				c2.56-10,13.06-15.72,23-13l12.33,3.39v-79.78C1994.78,1588.89,1992.22,1581.61,1994.28,1574.56z"/>
			<path class="st2" d="M1954.94,1864c-20.39,13.72-19.44,50.67,2,82.61c12,17.72,27.83,30.22,43.06,35.33v-114.72
				C1983.83,1857.72,1967,1855.89,1954.94,1864z"/>
			<path class="st2" d="M1863.72,2000h82.83c-3.83-1.94-7.89-3.67-12.11-5.17C1906.56,1984.94,1878.78,1987.61,1863.72,2000z"/>
			<path class="st3" d="M1257.72,0.02L1257.72,0.02l0.01-0.02h-0.01h-78.56l-36.78,117.28c-3.11,9.83-13.61,15.61-23.39,12.33
				c-4.5-1.5-9.33-2.44-14.44-2.78c-24.28-1.44-47.33,12.94-56.44,35.5c-12.61,31.28,4.28,66.06,35.83,75.94
				c30.06,9.44,62.11-7.33,71.56-37.39c-10.11,32.11,9.67,66.44,43.67,73.11c25.83,5.06,52.39-8.78,62.94-32.89
				c13.94-31.72-2.94-67.56-35.11-77.61c-0.06-0.06-0.11-0.06-0.17-0.06c-10.17-3.17-16.06-13.61-12.89-23.72L1257.72,0.02z"/>
			<path class="st2" d="M33.44,196.94c39.78-9.83,38.94-56.83,73.33-73.56c42.5-20.56,89.39,27.33,127.67-8.39
				c51.17-47.83-75.72-93.89-105.06-110.56c-2.67-1.5-5.33-3.06-8.11-4.44H55.94C45.06,6.89,36.44,17.11,29.5,29
				C22.39,41.11,8.89,72.44,0,105v85.61C6.56,198.06,17.22,200.94,33.44,196.94z"/>
			<path class="st2" d="M2000,190.61V105C1990.56,139.33,1986.22,175,2000,190.61z"/>
			<path class="st2" d="M1863.67,0c-4.48,3.68-7.85,8.2-9.73,13.52c-8.21,23.16,14.54,52.35,50.8,65.2
				c36.26,12.85,72.31,4.5,80.52-18.66c7.25-20.45-9.66-45.6-38.69-60.05H1863.67z"/>
			<path class="st4" d="M261.99,736.06c-1.95,19.25,8.2,38.64,21.82,51.67c11.06,10.58,29.85,21.28,38.08,1.22
				c3-7.3,3.19-15.5,6.1-22.83c6.55-16.5,21.87,11.94,26.34,17.02c9.17,10.41,22.21,17.06,35.65,10.05
				c15.68-8.18,29.35-25.18,31.15-43.1c3.46-34.44-39.74-69.16-80.76-69.83C306.76,679.71,265.45,701.87,261.99,736.06z"/>
			
				<ellipse transform="matrix(0.7246 -0.6891 0.6891 0.7246 -344.0547 417.7236)" class="st4" cx="350.66" cy="639.37" rx="25.53" ry="25.53"/>
			
				<ellipse transform="matrix(0.1358 -0.9907 0.9907 0.1358 -325.4738 1073.043)" class="st4" cx="452.36" cy="723.09" rx="25.53" ry="25.53"/>
			<path class="st4" d="M437.77,655.27c-5.3-12.12-19.43-17.65-31.55-12.35c-12.12,5.3-17.65,19.43-12.35,31.55
				c5.3,12.12,19.43,17.65,31.55,12.34C437.55,681.51,443.07,667.39,437.77,655.27z"/>
			
				<ellipse transform="matrix(0.017 -0.9999 0.9999 0.017 -376.1842 917.7029)" class="st4" cx="278.61" cy="650.16" rx="28.09" ry="28.09"/>
			<path class="st3" d="M1147.15,519.56c-17.86,7.45-30.08,25.61-35.05,43.78c-4.04,14.77-4.5,36.38,17.06,34.07
				c7.85-0.84,15.15-4.57,22.98-5.5c17.63-2.09-0.09,24.92-2.43,31.26c-4.79,13.02-4.43,27.66,8.13,36.14
				c14.66,9.9,36.11,13.83,52.73,6.88c31.93-13.35,41.9-67.87,22.96-104.26C1218.01,532.11,1178.86,506.33,1147.15,519.56z"/>
			<path class="st3" d="M1279.27,526.46c-13.84-2.7-27.24,6.33-29.94,20.17c-2.7,13.84,6.33,27.24,20.17,29.94
				c13.84,2.7,27.24-6.33,29.94-20.17C1302.14,542.56,1293.11,529.16,1279.27,526.46z"/>
			<path class="st3" d="M1274.23,685.69c2.7-13.84-6.33-27.24-20.17-29.94c-13.84-2.7-27.24,6.33-29.94,20.17
				c-2.7,13.84,6.33,27.24,20.17,29.94C1258.12,708.56,1271.53,699.53,1274.23,685.69z"/>
			
				<ellipse transform="matrix(0.7716 -0.6361 0.6361 0.7716 -101.95 958.0007)" class="st3" cx="1282.98" cy="620.96" rx="23.95" ry="23.95"/>
			
				<ellipse transform="matrix(0.7269 -0.6868 0.6868 0.7269 -2.6831 979.8347)" class="st3" cx="1230.6" cy="493.29" rx="28.09" ry="28.09"/>
			<path class="st2" d="M1759.39,630.97c-28.02,18.56-49.55,60.21-33.06,90.36c9.28,16.98,28.62,27.23,47.22,30.26
				c15.11,2.47,36.65,0.66,32.09-20.54c-1.66-7.71-6.14-14.59-7.89-22.28c-3.93-17.31,24.79-2.52,31.34-0.87
				c13.45,3.4,27.97,1.5,35.08-11.88c8.3-15.62,9.96-37.37,1.31-53.16C1848.86,612.51,1793.59,608.31,1759.39,630.97z"/>
			
				<ellipse transform="matrix(0.9033 -0.4291 0.4291 0.9033 -85.0021 805.7954)" class="st2" cx="1744.75" cy="591.43" rx="25.53" ry="25.53"/>
			
				<ellipse transform="matrix(0.9159 -0.4014 0.4014 0.9159 -84.2435 803.8257)" class="st2" cx="1875.97" cy="602.94" rx="25.53" ry="25.53"/>
			
				<ellipse transform="matrix(0.9779 -0.2089 0.2089 0.9779 -80.2411 391.3936)" class="st2" cx="1812.91" cy="575.59" rx="23.95" ry="23.95"/>
			
				<ellipse transform="matrix(0.1057 -0.9944 0.9944 0.1057 875.2096 2255.3237)" class="st2" cx="1691.45" cy="641.09" rx="28.09" ry="28.09"/>
			<path class="st3" d="M557.39,1932.06c-40.11-1.28-89.83,24.39-94.61,65.17c-0.11,0.94-0.22,1.83-0.22,2.78h188.83
				C643.22,1965,599.56,1933.44,557.39,1932.06z"/>
			<path class="st3" d="M550.68,1906.69c12.82,10.9,32.06,9.34,42.96-3.48s9.34-32.06-3.48-42.96c-12.82-10.9-32.06-9.34-42.96,3.48
				S537.86,1895.78,550.68,1906.69z"/>
			<path class="st3" d="M710,1962.11c-12.83-10.89-32.06-9.33-43,3.5c-8.39,9.89-9.39,23.61-3.44,34.39h53.39
				C723.78,1987.56,721.17,1971.67,710,1962.11z"/>
			<path class="st3" d="M636.68,1888.76c-14.57,6.1-21.43,22.86-15.33,37.42c6.1,14.57,22.86,21.43,37.42,15.33
				c14.57-6.1,21.43-22.86,15.33-37.42C668.01,1889.52,651.25,1882.66,636.68,1888.76z"/>
			
				<ellipse transform="matrix(0.2001 -0.9798 0.9798 0.2001 -1469.3386 1990.2535)" class="st3" cx="484.22" cy="1894.99" rx="33.53" ry="33.53"/>
			<path class="st3" d="M487.83,59.28c13,12.83,35.22,26,45.44,2.17c3.67-8.61,4.06-18.44,7.67-27.11
				c8.17-19.61,25.89,14.67,31.17,20.78c10.72,12.61,26.17,20.83,42.33,12.72c18.89-9.5,35.5-29.5,38-50.89
				c0.67-5.67,0.28-11.39-1.06-16.94H462.56C461,22.06,472.5,44.17,487.83,59.28z"/>
			<path class="st3" d="M663.56,0L663.56,0c-0.01,0.01,0,0.01,0,0.02h0.01c1.67,3.16,4,6.1,6.93,8.54
				c12.83,10.89,32.06,9.33,42.94-3.5c1.33-1.61,2.55-3.27,3.49-5.04h0.01c0-0.01,0.01-0.01,0.01-0.02h-0.01H663.56z"/>
			
				<ellipse transform="matrix(0.7071 -0.7071 0.7071 0.7071 -132.8575 240.3345)" class="st3" cx="223.68" cy="280.54" rx="61.62" ry="61.62"/>
			
				<ellipse transform="matrix(0.9871 -0.1602 0.1602 0.9871 -98.2399 111.0566)" class="st2" cx="639.72" cy="664.87" rx="61.62" ry="61.62"/>
			<circle class="st3" cx="490.13" cy="964.35" r="61.62"/>
			
				<ellipse transform="matrix(0.124 -0.9923 0.9923 0.124 12.3995 3058.3164)" class="st3" cx="1738.39" cy="1522.14" rx="61.62" ry="61.62"/>
			<circle class="st3" cx="1274.39" cy="1623.79" r="61.62"/>
			
				<ellipse transform="matrix(0.9876 -0.1572 0.1572 0.9876 -71.8028 243.1393)" class="st2" cx="1501.52" cy="575.59" rx="61.62" ry="61.62"/>
			<circle class="st3" cx="1521.87" cy="1129.57" r="61.62"/>
			<circle class="st3" cx="378.17" cy="1476.82" r="61.62"/>
			<circle class="st3" cx="378.17" cy="151.19" r="43.15"/>
			<circle class="st3" cx="177.07" cy="1108.43" r="43.15"/>
			
				<ellipse transform="matrix(0.9732 -0.2298 0.2298 0.9732 -341.3031 71.5945)" class="st4" cx="136.8" cy="1501.45" rx="43.15" ry="43.15"/>
			<circle class="st3" cx="894.22" cy="1208.05" r="43.15"/>
			<circle class="st4" cx="1078.34" cy="1921.76" r="43.15"/>
			<circle class="st2" cx="1016.11" cy="1580.64" r="43.15"/>
			
				<ellipse transform="matrix(0.3827 -0.9239 0.9239 0.3827 -643.3389 1317.1208)" class="st4" cx="663.94" cy="1139.97" rx="30.51" ry="30.51"/>
			
				<ellipse transform="matrix(0.1213 -0.9926 0.9926 0.1213 -526.3898 3178.4363)" class="st3" cx="1532.03" cy="1886.53" rx="30.51" ry="30.51"/>
			
				<ellipse transform="matrix(0.1213 -0.9926 0.9926 0.1213 1093.0336 2076.8267)" class="st3" cx="1719.54" cy="421.05" rx="30.51" ry="30.51"/>
			
				<ellipse transform="matrix(0.9739 -0.2268 0.2268 0.9739 -367.1147 464.2547)" class="st3" cx="1836.87" cy="1829.8" rx="30.51" ry="30.51"/>
			
				<ellipse transform="matrix(0.3757 -0.9268 0.9268 0.3757 7.5148 1707.34)" class="st3" cx="1270.93" cy="848.09" rx="30.51" ry="30.51"/>
			<circle class="st3" cx="1896.07" cy="889.59" r="30.51"/>
			
				<ellipse transform="matrix(0.9968 -0.0805 0.0805 0.9968 -100.3159 140.4071)" class="st4" cx="1691.45" cy="1314.52" rx="30.51" ry="30.51"/>
			
				<ellipse transform="matrix(0.9627 -0.2707 0.2707 0.9627 31.0008 475.3149)" class="st3" cx="1738.39" cy="125.29" rx="30.51" ry="30.51"/>
			<circle class="st4" cx="937.38" cy="74.68" r="30.51"/>
			
				<ellipse transform="matrix(0.9204 -0.3909 0.3909 0.9204 -47.5702 461.4765)" class="st3" cx="1109.92" cy="347.6" rx="30.51" ry="30.51"/>
			
				<ellipse transform="matrix(0.9869 -0.1614 0.1614 0.9869 -200.6445 321.7253)" class="st3" cx="1879.6" cy="1395.64" rx="30.51" ry="30.51"/>
			
				<ellipse transform="matrix(0.7071 -0.7071 0.7071 0.7071 -1099.6748 884.4272)" class="st3" cx="517.76" cy="1769.64" rx="30.51" ry="30.51"/>
			<circle class="st4" cx="753.53" cy="1800.45" r="30.51"/>
		</g>
	</g>
	<g>
		<rect x="2000" class="st1" width="2000" height="2000"/>
		<g>
			<path class="st2" d="M2202.31,0.02c2.38,1.71,5.04,2.98,7.92,3.7c6.71,1.72,13.7,0.23,20.3-3.7h0.03
				c0.01-0.01,0.02-0.01,0.03-0.02h-0.03h-28.28h-0.02c0.01,0.01,0.02,0.01,0.02,0.02H2202.31z"/>
			<path class="st2" d="M2087.22,604c-4.06,19.11,2.44,39.94,19.44,53.22c19.33,15.11,47.28,14.78,66.28-0.78
				c25-20.5,26.06-57.5,3.61-79.44c22.44,21.94,59.39,20.06,79.33-5.44c15.11-19.33,14.78-47.28-0.78-66.28
				c-13.67-16.67-34.67-22.67-53.67-18.22c-20.94,4.94-42.89-2.11-58.28-17.11L2000,330.06v149l68.72,67.11
				C2084.11,561.17,2091.67,583,2087.22,604z"/>
			<path class="st2" d="M2195.39,1423.02c14.78-3.65,25.01-15.2,27.91-28.67c3.21-14.85,14.39-26.72,28.64-31.96l141.56-52.04
				c14.26-5.24,30.46-3.44,42.52,5.8c10.94,8.38,26.21,10.55,39.83,3.76c15.52-7.73,23.81-25.66,19.65-42.49
				c-5.48-22.17-28.72-34.09-49.55-26.44c20.83-7.66,30.82-31.8,20.63-52.24c-7.73-15.52-25.66-23.81-42.49-19.65
				c-14.78,3.65-25,15.2-27.91,28.67c-3.21,14.85-14.39,26.72-28.64,31.96l-141.56,52.04c-14.26,5.24-30.46,3.44-42.52-5.8
				c-10.93-8.38-26.21-10.55-39.83-3.76c-15.52,7.73-23.81,25.66-19.65,42.49c5.48,22.17,28.72,34.09,49.55,26.44
				c-20.83,7.66-30.82,31.8-20.63,52.24C2160.63,1418.89,2178.56,1427.18,2195.39,1423.02z"/>
			<path class="st3" d="M3393.25,847.27c11.66,9.79,27.02,11.24,39.61,5.66c13.89-6.16,30.06-4.12,42.7,4.31l125.47,83.7
				c12.64,8.43,20.73,22.58,20.38,37.77c-0.32,13.77,6.92,27.39,20.43,34.4c15.39,7.98,34.76,4.11,45.91-9.17
				c14.68-17.49,10.62-43.3-7.84-55.61c18.46,12.32,43.85,6.16,54.36-14.12c7.98-15.39,4.11-34.76-9.17-45.91
				c-11.66-9.79-27.02-11.24-39.61-5.66c-13.89,6.16-30.06,4.12-42.7-4.31l-125.47-83.7c-12.64-8.43-20.73-22.58-20.38-37.77
				c0.32-13.77-6.92-27.39-20.43-34.4c-15.39-7.98-34.76-4.11-45.91,9.17c-14.68,17.49-10.62,43.3,7.84,55.61
				c-18.46-12.31-43.85-6.16-54.36,14.12C3376.1,816.76,3379.97,836.13,3393.25,847.27z"/>
			<path class="st3" d="M3046.44,1758.75c13.43-10.86,14.74-31.16,2.11-43.67c-9.59-9.5-24.88-11.11-36.24-3.83
				c-9.98,6.4-14.62,17.47-13.38,28.12c1.36,11.75-3.9,23.3-13.1,30.73l-91.28,73.84c-9.19,7.44-21.59,10.17-32.79,6.39
				c-10.16-3.43-21.96-1.21-30.3,7.21c-9.5,9.59-11.11,24.88-3.83,36.24c9.6,14.97,29.72,17.92,43.15,7.06
				c-13.43,10.86-14.74,31.16-2.11,43.67c9.59,9.5,24.88,11.11,36.24,3.83c9.98-6.4,14.62-17.47,13.38-28.12
				c-1.36-11.75,3.9-23.3,13.1-30.73l91.28-73.84c9.19-7.44,21.59-10.17,32.79-6.39c10.16,3.43,21.96,1.21,30.3-7.21
				c9.5-9.59,11.11-24.88,3.83-36.24C3079.99,1750.84,3059.87,1747.88,3046.44,1758.75z"/>
			<path class="st3" d="M2990.34,450.33c13.43-10.86,14.74-31.16,2.11-43.67c-9.59-9.5-24.88-11.11-36.24-3.83
				c-9.98,6.4-14.62,17.47-13.38,28.12c1.36,11.75-3.9,23.3-13.1,30.73l-91.28,73.84c-9.19,7.44-21.59,10.17-32.79,6.39
				c-10.16-3.43-21.96-1.21-30.3,7.21c-9.5,9.59-11.11,24.88-3.83,36.24c9.6,14.97,29.72,17.92,43.15,7.06
				c-13.43,10.86-14.74,31.16-2.11,43.67c9.59,9.5,24.88,11.11,36.24,3.83c9.98-6.4,14.62-17.47,13.38-28.12
				c-1.36-11.75,3.9-23.3,13.1-30.73l91.28-73.84c9.19-7.44,21.59-10.17,32.79-6.39c10.16,3.43,21.96,1.21,30.3-7.21
				c9.5-9.59,11.11-24.88,3.83-36.24C3023.89,442.42,3003.77,439.46,2990.34,450.33z"/>
			<path class="st3" d="M3665.14,1670.31c-7.39-11.29-22.01-16.07-34.64-11.32c-16.64,6.26-23.74,25.31-15.92,40.72
				c-7.82-15.4-27.39-20.93-42.26-11.19c-11.29,7.39-16.07,22.01-11.32,34.64c4.17,11.09,14.03,17.95,24.71,18.97
				c11.77,1.12,21.97,8.69,27.32,19.23l53.14,104.7c5.35,10.55,5.44,23.24-0.61,33.4c-5.48,9.22-5.77,21.22,0.72,31.14
				c7.39,11.29,22.01,16.07,34.64,11.32c16.64-6.26,23.74-25.31,15.92-40.72c7.82,15.4,27.39,20.93,42.27,11.19
				c11.29-7.39,16.07-22.01,11.32-34.64c-4.17-11.09-14.03-17.95-24.71-18.96c-11.77-1.12-21.97-8.69-27.32-19.23l-53.14-104.7
				c-5.35-10.55-5.44-23.24,0.61-33.4C3671.35,1692.23,3671.64,1680.22,3665.14,1670.31z"/>
			<path class="st3" d="M2589.98,482.13c11.29-7.39,16.07-22.01,11.32-34.64c-4.17-11.09-14.03-17.95-24.71-18.96
				c-11.77-1.12-21.97-8.69-27.32-19.23l-53.14-104.7c-5.35-10.55-5.44-23.24,0.6-33.4c5.48-9.22,5.77-21.22-0.72-31.14
				c-7.39-11.29-22.01-16.07-34.64-11.32c-16.64,6.26-23.74,25.31-15.92,40.72c-7.82-15.4-27.39-20.93-42.26-11.19
				c-11.29,7.39-16.07,22.01-11.32,34.64c4.17,11.09,14.03,17.95,24.71,18.96c11.77,1.12,21.97,8.69,27.32,19.23l53.14,104.7
				c5.35,10.55,5.44,23.24-0.6,33.4c-5.48,9.22-5.77,21.22,0.72,31.14c7.39,11.29,22.01,16.07,34.64,11.32
				c16.64-6.26,23.74-25.31,15.92-40.72C2555.53,486.34,2575.11,491.87,2589.98,482.13z"/>
			<path class="st3" d="M2137.89,896.33c3.89,2.72,8.22,5.06,13.06,6.83c22.83,8.39,49.06,1.22,64.22-17.78
				c21.06-26.33,14.89-64.5-12.5-83c-26.11-17.67-61.61-10.83-79.28,15.28c18.89-27.89,9.78-66.5-20.89-82.61
				c-23.22-12.28-52.67-6.61-69.72,13.44c-22.44,26.39-16.56,65.56,11.33,84.44c0.06,0,0.11,0.06,0.17,0.11
				c8.83,5.89,11.5,17.61,5.56,26.39L2000,933.06v133.89l111.94-165.44C2117.72,892.94,2129.44,890.44,2137.89,896.33z"/>
			<path class="st2" d="M2279.33,1768.72c-1.33,4.56-2.11,9.44-2.22,14.61c-0.61,24.28,14.67,46.83,37.5,55.06
				c31.78,11.44,65.83-6.72,74.56-38.61c8.33-30.39-9.61-61.78-40-70.11c32.5,8.89,66.06-12.17,71.5-46.39
				c4.06-25.94-10.78-52-35.22-61.67c-32.22-12.72-67.44,5.5-76.28,37.94c-0.06,0.06-0.06,0.17-0.06,0.22
				c-2.78,10.22-13,16.5-23.22,13.72l-278.44-76.11c-2.83-0.78-5.33-2.17-7.44-4v79.78l266.11,72.72
				C2276.06,1748.56,2282.22,1758.83,2279.33,1768.72z"/>
			<path class="st3" d="M3323.67,1851.94c3.56,1.22,7.39,2.06,11.44,2.5c25.22,2.89,49.94-11.61,59.39-35.17
				c12.67-31.33-4.22-66.06-35.78-76c-30.11-9.39-62.11,7.33-71.56,37.44c9.44-30.11-7.33-62.11-37.39-71.56
				c-31.56-9.89-65.22,9-72.78,41.89c-5.39,23.72,5.33,48.72,26.11,61.33c4.39,2.67,8.89,4.67,13.44,6
				c9.89,2.89,15.22,13.61,12.17,23.44L3179.17,2000h78.56l42.56-135.72C3303.39,1854.44,3313.89,1848.67,3323.67,1851.94z"/>
			<path class="st3" d="M2713.83,1529.74c-4.44-28.07-23.85-43.64-47.81-52.63c-33.6-12.61-198.84-45.36-164.86,32.32
				c16.42,37.54,62.62,28.73,84.92,59.84c27.5,38.37-11.8,92.69,29.93,124.35c55.79,42.32,79.7-90.51,91.16-122.25
				C2711.7,1558.8,2716.31,1545.42,2713.83,1529.74z"/>
			
				<ellipse transform="matrix(0.7228 -0.691 0.691 0.7228 -217.3354 2305.7441)" class="st3" cx="2765.66" cy="1423.8" rx="69.66" ry="44.48"/>
			
				<ellipse transform="matrix(0.8794 -0.476 0.476 0.8794 -394.8838 1519.0631)" class="st3" cx="2801.21" cy="1539.04" rx="69.66" ry="44.48"/>
			<path class="st3" d="M2627.91,1438.76c24.21,4.16,49.12-23.2,55.64-61.12c6.52-37.92-7.82-72.03-32.03-76.19
				c-24.21-4.16-49.12,23.2-55.64,61.12C2589.36,1400.48,2603.7,1434.6,2627.91,1438.76z"/>
			
				<ellipse transform="matrix(0.0767 -0.9971 0.9971 0.0767 913.1176 4296.3633)" class="st3" cx="2776.39" cy="1655.14" rx="35.13" ry="55.02"/>
			<path class="st4" d="M3032.76,1043.51c58.52-38.45-58.69-105.36-84.78-126.75c-10.33-8.47-21.41-17.28-37.02-20.19
				c-27.94-5.2-49.1,7.9-65.57,27.48c-23.11,27.46-109.18,172.27-24.6,166.19c40.87-2.94,48-49.43,84.77-60.05
				C2950.9,1017.09,2988.98,1072.28,3032.76,1043.51z"/>
			
				<ellipse transform="matrix(0.9121 -0.4099 0.4099 0.9121 -84.4522 1230.6792)" class="st4" cx="2828.42" cy="812.33" rx="44.48" ry="69.66"/>
			
				<ellipse transform="matrix(0.9879 -0.1549 0.1549 0.9879 -91.0257 466.7982)" class="st4" cx="2948.92" cy="817.31" rx="44.48" ry="69.66"/>
			
				<ellipse transform="matrix(0.4889 -0.8723 0.8723 0.4889 601.6397 2853.1177)" class="st4" cx="2735.74" cy="913.1" rx="44.48" ry="69.66"/>
			
				<ellipse transform="matrix(0.4054 -0.9142 0.9142 0.4054 1009.691 3311.217)" class="st4" cx="3050.06" cy="879.5" rx="55.02" ry="35.13"/>
			<path class="st4" d="M3413.2,355.07c28.27,13.28,50.35-14.98,78.76-8.34c35.04,8.19,39.79,59.09,79.63,56.28
				c53.25-3.76,0.24-91.94-9.14-115.9c-3.71-9.49-7.79-19.47-17.09-27.22c-16.64-13.87-35.6-13.04-53.85-6.17
				C3465.91,263.36,3354.69,327.59,3413.2,355.07z"/>
			
				<ellipse transform="matrix(0.0884 -0.9961 0.9961 0.0884 3038.0376 3665.8613)" class="st4" cx="3521.87" cy="173.09" rx="53.11" ry="33.91"/>
			
				<ellipse transform="matrix(0.3479 -0.9375 0.9375 0.3479 2140.3083 3519.6396)" class="st4" cx="3600.15" cy="221.32" rx="53.11" ry="33.91"/>
			<path class="st4" d="M3394.95,160.26c-15.98,9.77-16.52,37.98-1.21,63c15.31,25.02,40.67,37.38,56.65,27.6
				c15.98-9.77,16.52-37.98,1.21-63C3436.29,162.84,3410.93,150.49,3394.95,160.26z"/>
			
				<ellipse transform="matrix(0.8006 -0.5992 0.5992 0.8006 546.7925 2243.7021)" class="st4" cx="3644.23" cy="300.37" rx="41.94" ry="26.78"/>
			<path class="st2" d="M2774.69,278.42c-13.57,16.12-64.11,101.16-14.45,97.6c24-1.72,28.19-29.03,49.78-35.26
				c26.63-7.69,48.99,24.72,74.7,7.82c34.37-22.58-34.46-61.87-49.79-74.44c-6.07-4.98-12.57-10.15-21.74-11.85
				C2796.79,259.23,2784.37,266.92,2774.69,278.42z"/>
			<path class="st2" d="M2747.96,175.49c-13.16,5.91-16.32,27.41-7.06,48.02c9.26,20.61,27.44,32.52,40.6,26.61
				c13.16-5.91,16.32-27.41,7.06-48.02S2761.12,169.58,2747.96,175.49z"/>
			
				<ellipse transform="matrix(0.9879 -0.1549 0.1549 0.9879 0.8175 441.9597)" class="st2" cx="2835.49" cy="215.74" rx="26.12" ry="40.91"/>
			
				<ellipse transform="matrix(0.4889 -0.8723 0.8723 0.4889 1147.899 2503.2705)" class="st2" cx="2710.3" cy="271.99" rx="26.12" ry="40.91"/>
			
				<ellipse transform="matrix(0.4054 -0.9142 0.9142 0.4054 1490.8075 2796.376)" class="st2" cx="2894.89" cy="252.25" rx="32.31" ry="20.63"/>
			<path class="st4" d="M3404.51,1478.85c25.87,17.73,13.64,60.57,46.89,70.88c44.44,13.78,29.26-74.6,29.22-97.02
				c-0.02-8.88-0.17-18.28-5.28-27.52c-9.13-16.53-24.79-21.85-41.79-22.03c-23.84-0.26-134.48,16.74-95.65,57.56
				C3356.67,1480.45,3383.53,1464.47,3404.51,1478.85z"/>
			
				<ellipse transform="matrix(0.4437 -0.8962 0.8962 0.4437 730.5605 3871.4607)" class="st4" cx="3483.7" cy="1347.27" rx="46.29" ry="29.56"/>
			
				<ellipse transform="matrix(0.6642 -0.7475 0.7475 0.6642 131.0157 3114.0671)" class="st4" cx="3532.03" cy="1411.19" rx="46.29" ry="29.56"/>
			<path class="st4" d="M3384.67,1296.73c-16.07,2.89-25.42,25.63-20.9,50.79c4.52,25.16,21.21,43.22,37.28,40.33
				s25.42-25.63,20.9-50.79C3417.43,1311.89,3400.74,1293.84,3384.67,1296.73z"/>
			
				<ellipse transform="matrix(0.9634 -0.268 0.268 0.9634 -269.5657 1004.1602)" class="st4" cx="3542.85" cy="1489.34" rx="36.56" ry="23.34"/>
			<path class="st2" d="M2055.94,2000h65.33c-9.33-4.94-19.5-9.06-31.78-9.22C2076.33,1990.61,2065.28,1994.06,2055.94,2000z"/>
			<path class="st2" d="M2032.78,1979.56c20.39-13.72,19.5-50.72-2-82.61c-8.78-13.06-19.61-23.22-30.78-29.72v114.72
				C2012.06,1986.11,2023.72,1985.61,2032.78,1979.56z"/>
			
				<ellipse transform="matrix(0.9474 -0.3201 0.3201 0.9474 -499.0197 776.8901)" class="st2" cx="2113.46" cy="1906.25" rx="44.48" ry="69.66"/>
			<path class="st2" d="M2257.72,1959c7.44-29.5-1.78-57.22-20.61-61.94c-18.78-4.72-40.06,15.28-47.5,44.72
				c-6.28,25-0.67,48.67,12.67,58.22h28.28C2242.5,1993,2252.94,1977.94,2257.72,1959z"/>
			<path class="st2" d="M3971.94,262.83c4.06-19.06-2.5-39.94-19.44-53.22c-19.33-15.11-47.33-14.78-66.28,0.78
				c-25,20.5-26.11,57.5-3.61,79.44c-22.5-21.94-59.44-20-79.33,5.44c-15.11,19.33-14.83,47.33,0.78,66.28
				c13.67,16.67,34.67,22.72,53.61,18.22c20.94-4.94,42.94,2.11,58.28,17.17l84.06,82.11v-149l-9.56-9.33
				C3975.06,305.67,3967.44,283.89,3971.94,262.83z"/>
			<path class="st2" d="M3301.18,1140.96c10.52-18.76,29.61-31.74,51.08-32.9c19.47-1.05,37.91-12.77,46.32-32.61
				c9.58-22.6,2-49.52-17.97-63.8c-26.3-18.81-62.28-10.24-77.64,17.16c15.36-27.41,3.89-62.57-25.88-75.19
				c-22.6-9.58-49.52-2-63.8,17.97c-12.54,17.53-12.91,39.37-3.65,56.53c10.22,18.93,9.11,41.98-1.4,60.75l-104.4,186.27
				c-10.52,18.76-29.61,31.74-51.08,32.9c-19.47,1.05-37.91,12.77-46.32,32.61c-9.58,22.6-2,49.52,17.97,63.8
				c26.3,18.81,62.28,10.24,77.64-17.16c-15.36,27.41-3.89,62.57,25.88,75.19c22.6,9.58,49.52,2,63.8-17.97
				c12.54-17.53,12.91-39.37,3.64-56.53c-10.22-18.93-9.11-41.98,1.4-60.74L3301.18,1140.96z"/>
			<path class="st3" d="M3862.11,1103.61c-3.11-2.17-6.5-4.11-10.22-5.72c-23.33-9.94-51.17-3.17-67.06,16.67
				c-21.06,26.39-14.89,64.5,12.5,83.06c26.11,17.67,61.61,10.83,79.28-15.28c-17.67,26.11-10.83,61.61,15.28,79.28
				c27.39,18.5,65.11,10.06,81.72-19.28c12-21.17,8.89-48.17-7.39-66.22c-3.44-3.83-7.17-7-11.17-9.61
				c-8.61-5.61-10.67-17.44-4.89-25.94l49.83-73.61V933.06l-111.94,165.44C3882.28,1107,3870.56,1109.56,3862.11,1103.61z"/>
			<path class="st2" d="M3994.28,1574.56c1.06-3.67,1.78-7.5,2.06-11.56c1.94-25.33-13.5-49.5-37.33-58.11
				c-31.78-11.44-65.89,6.72-74.61,38.61c-8.28,30.39,9.61,61.78,40,70.11c-30.39-8.33-61.78,9.61-70.11,40
				c-8.67,31.89,11.44,64.89,44.61,71.17c23.83,4.56,48.44-7.11,60.33-28.33c2.5-4.5,4.28-9.06,5.44-13.67
				c2.56-10,13.06-15.72,23-13l12.33,3.39v-79.78C3994.78,1588.89,3992.22,1581.61,3994.28,1574.56z"/>
			<path class="st3" d="M3954.94,1864c-20.39,13.72-19.44,50.67,2,82.61c12,17.72,27.83,30.22,43.06,35.33v-114.72
				C3983.83,1857.72,3967,1855.89,3954.94,1864z"/>
			<path class="st3" d="M3863.72,2000h82.83c-3.83-1.94-7.89-3.67-12.11-5.17C3906.56,1984.94,3878.78,1987.61,3863.72,2000z"/>
			<path class="st3" d="M3257.72,0.02L3257.72,0.02l0.01-0.02h-0.01h-78.56l-36.78,117.28c-3.11,9.83-13.61,15.61-23.39,12.33
				c-4.5-1.5-9.33-2.44-14.44-2.78c-24.28-1.44-47.33,12.94-56.44,35.5c-12.61,31.28,4.28,66.06,35.83,75.94
				c30.06,9.44,62.11-7.33,71.56-37.39c-10.11,32.11,9.67,66.44,43.67,73.11c25.83,5.06,52.39-8.78,62.94-32.89
				c13.94-31.72-2.94-67.56-35.11-77.61c-0.06-0.06-0.11-0.06-0.17-0.06c-10.17-3.17-16.06-13.61-12.89-23.72L3257.72,0.02z"/>
			<path class="st2" d="M2033.44,196.94c39.78-9.83,38.94-56.83,73.33-73.56c42.5-20.56,89.39,27.33,127.67-8.39
				c51.17-47.83-75.72-93.89-105.06-110.56c-2.67-1.5-5.33-3.06-8.11-4.44h-65.33c-10.89,6.89-19.5,17.11-26.44,29
				c-7.11,12.11-20.61,43.44-29.5,76v85.61C2006.56,198.06,2017.22,200.94,2033.44,196.94z"/>
			<path class="st3" d="M4000,190.61V105C3990.56,139.33,3986.22,175,4000,190.61z"/>
			<path class="st3" d="M3863.67,0c-4.48,3.68-7.85,8.2-9.73,13.52c-8.21,23.16,14.54,52.35,50.8,65.2
				c36.26,12.85,72.31,4.5,80.52-18.66c7.25-20.45-9.66-45.6-38.69-60.05H3863.67z"/>
			<path class="st4" d="M2261.99,736.06c-1.95,19.25,8.2,38.64,21.82,51.67c11.06,10.58,29.85,21.28,38.08,1.22
				c3-7.3,3.19-15.5,6.1-22.83c6.55-16.5,21.87,11.94,26.34,17.02c9.17,10.41,22.21,17.06,35.65,10.05
				c15.68-8.18,29.35-25.18,31.15-43.1c3.46-34.44-39.74-69.16-80.76-69.83C2306.76,679.71,2265.45,701.87,2261.99,736.06z"/>
			
				<ellipse transform="matrix(0.7246 -0.6891 0.6891 0.7246 206.7006 1796.016)" class="st4" cx="2350.66" cy="639.37" rx="25.53" ry="25.53"/>
			
				<ellipse transform="matrix(0.1358 -0.9907 0.9907 0.1358 1402.8772 3054.5088)" class="st4" cx="2452.36" cy="723.09" rx="25.53" ry="25.53"/>
			<path class="st4" d="M2437.77,655.27c-5.3-12.12-19.43-17.65-31.55-12.35c-12.12,5.3-17.65,19.43-12.34,31.55
				c5.3,12.12,19.43,17.65,31.55,12.34C2437.55,681.51,2443.07,667.39,2437.77,655.27z"/>
			
				<ellipse transform="matrix(0.017 -0.9999 0.9999 0.017 1589.8794 2917.415)" class="st4" cx="2278.61" cy="650.16" rx="28.09" ry="28.09"/>
			<path class="st3" d="M3147.15,519.56c-17.86,7.45-30.08,25.61-35.05,43.78c-4.04,14.77-4.5,36.38,17.06,34.07
				c7.85-0.84,15.15-4.57,22.99-5.5c17.63-2.09-0.09,24.92-2.43,31.26c-4.79,13.02-4.43,27.66,8.13,36.14
				c14.66,9.9,36.11,13.83,52.73,6.88c31.93-13.35,41.9-67.87,22.96-104.26C3218.01,532.11,3178.86,506.33,3147.15,519.56z"/>
			<path class="st3" d="M3279.27,526.46c-13.84-2.7-27.24,6.33-29.94,20.17c-2.7,13.84,6.33,27.24,20.17,29.94
				c13.84,2.7,27.24-6.33,29.94-20.17C3302.14,542.56,3293.11,529.16,3279.27,526.46z"/>
			<path class="st3" d="M3274.23,685.69c2.7-13.84-6.33-27.24-20.17-29.94c-13.84-2.7-27.24,6.33-29.94,20.17
				c-2.7,13.84,6.33,27.24,20.17,29.94C3258.12,708.56,3271.53,699.53,3274.23,685.69z"/>
			
				<ellipse transform="matrix(0.7739 -0.6334 0.6334 0.7739 349.133 2219.738)" class="st3" cx="3282.98" cy="620.96" rx="23.95" ry="23.95"/>
			
				<ellipse transform="matrix(0.7493 -0.6623 0.6623 0.7493 483.3063 2263.1743)" class="st3" cx="3230.6" cy="493.29" rx="28.09" ry="28.09"/>
			<path class="st2" d="M3759.39,630.97c-28.02,18.56-49.55,60.21-33.06,90.36c9.28,16.98,28.62,27.23,47.22,30.26
				c15.11,2.47,36.65,0.66,32.09-20.54c-1.66-7.71-6.14-14.59-7.89-22.28c-3.93-17.31,24.79-2.52,31.34-0.87
				c13.45,3.4,27.97,1.5,35.08-11.88c8.3-15.62,9.96-37.37,1.31-53.16C3848.86,612.51,3793.59,608.31,3759.39,630.97z"/>
			
				<ellipse transform="matrix(0.9175 -0.3978 0.3978 0.9175 73.7466 1538.363)" class="st2" cx="3744.75" cy="591.43" rx="25.53" ry="25.53"/>
			
				<ellipse transform="matrix(0.914 -0.4057 0.4057 0.914 88.7054 1624.3564)" class="st2" cx="3875.97" cy="602.94" rx="25.53" ry="25.53"/>
			
				<ellipse transform="matrix(0.9741 -0.2263 0.2263 0.9741 -31.3317 877.9131)" class="st2" cx="3812.91" cy="575.59" rx="23.95" ry="23.95"/>
			
				<ellipse transform="matrix(0.1062 -0.9943 0.9943 0.1062 2661.9072 4243.5659)" class="st2" cx="3691.45" cy="641.09" rx="28.09" ry="28.09"/>
			<path class="st3" d="M2557.39,1932.06c-40.11-1.28-89.83,24.39-94.61,65.17c-0.11,0.94-0.22,1.83-0.22,2.78h188.83
				C2643.22,1965,2599.56,1933.44,2557.39,1932.06z"/>
			<path class="st3" d="M2550.69,1906.69c12.82,10.9,32.06,9.34,42.96-3.48c10.9-12.82,9.34-32.06-3.48-42.96
				c-12.82-10.9-32.06-9.34-42.96,3.48C2536.3,1876.55,2537.86,1895.78,2550.69,1906.69z"/>
			<path class="st3" d="M2710,1962.11c-12.83-10.89-32.06-9.33-43,3.5c-8.39,9.89-9.39,23.61-3.44,34.39h53.39
				C2723.78,1987.56,2721.17,1971.67,2710,1962.11z"/>
			<path class="st3" d="M2636.68,1888.76c-14.57,6.1-21.43,22.86-15.33,37.42c6.1,14.57,22.86,21.43,37.42,15.33
				c14.57-6.1,21.43-22.86,15.33-37.42C2668.01,1889.52,2651.25,1882.66,2636.68,1888.76z"/>
			
				<ellipse transform="matrix(0.2001 -0.9798 0.9798 0.2001 130.4864 3949.8096)" class="st3" cx="2484.22" cy="1894.99" rx="33.53" ry="33.53"/>
			<path class="st3" d="M2487.83,59.28c13,12.83,35.22,26,45.44,2.17c3.67-8.61,4.06-18.44,7.67-27.11
				c8.17-19.61,25.89,14.67,31.17,20.78c10.72,12.61,26.17,20.83,42.33,12.72c18.89-9.5,35.5-29.5,38-50.89
				c0.67-5.67,0.28-11.39-1.06-16.94h-188.83C2461,22.06,2472.5,44.17,2487.83,59.28z"/>
			<path class="st3" d="M2663.56,0L2663.56,0c-0.01,0.01,0,0.01,0,0.02h0.01c1.67,3.16,4,6.1,6.93,8.54
				c12.83,10.89,32.06,9.33,42.94-3.5c1.33-1.61,2.55-3.27,3.49-5.04h0.01c0-0.01,0.01-0.01,0.01-0.02h-0.01H2663.56z"/>
			
				<ellipse transform="matrix(0.7071 -0.7071 0.7071 0.7071 452.9289 1654.548)" class="st3" cx="2223.68" cy="280.54" rx="61.62" ry="61.62"/>
			
				<ellipse transform="matrix(0.9871 -0.1602 0.1602 0.9871 -72.4148 431.421)" class="st2" cx="2639.72" cy="664.87" rx="61.62" ry="61.62"/>
			<circle class="st3" cx="2490.13" cy="964.35" r="61.62"/>
			
				<ellipse transform="matrix(0.1222 -0.9925 0.9925 0.1222 1770.8914 5046.5366)" class="st3" cx="3738.39" cy="1522.14" rx="61.62" ry="61.62"/>
			<circle class="st3" cx="3274.39" cy="1623.79" r="61.62"/>
			
				<ellipse transform="matrix(0.9871 -0.1602 0.1602 0.9871 -46.9864 568.3134)" class="st2" cx="3501.52" cy="575.59" rx="61.62" ry="61.62"/>
			<circle class="st3" cx="3521.87" cy="1129.57" r="61.62"/>
			<circle class="st3" cx="2378.17" cy="1476.82" r="61.62"/>
			<circle class="st3" cx="2378.17" cy="151.19" r="43.15"/>
			<circle class="st3" cx="2177.07" cy="1108.43" r="43.15"/>
			
				<ellipse transform="matrix(0.9732 -0.2298 0.2298 0.9732 -287.801 531.1008)" class="st4" cx="2136.8" cy="1501.45" rx="43.15" ry="43.15"/>
			<circle class="st3" cx="2894.22" cy="1208.05" r="43.15"/>
			<circle class="st4" cx="3078.34" cy="1921.76" r="43.15"/>
			<circle class="st2" cx="3016.11" cy="1580.64" r="43.15"/>
			
				<ellipse transform="matrix(0.3827 -0.9239 0.9239 0.3827 591.2938 3164.8799)" class="st4" cx="2663.94" cy="1139.97" rx="30.51" ry="30.51"/>
			
				<ellipse transform="matrix(0.1222 -0.9925 0.9925 0.1222 1228.0806 5161.5977)" class="st3" cx="3532.03" cy="1886.53" rx="30.51" ry="30.51"/>
			
				<ellipse transform="matrix(0.1222 -0.9925 0.9925 0.1222 2847.1772 4061.2771)" class="st3" cx="3719.54" cy="421.05" rx="30.51" ry="30.51"/>
			
				<ellipse transform="matrix(0.9732 -0.2298 0.2298 0.9732 -317.7618 930.4791)" class="st3" cx="3836.87" cy="1829.8" rx="30.51" ry="30.51"/>
			
				<ellipse transform="matrix(0.3827 -0.9239 0.9239 0.3827 1235.6624 3545.4841)" class="st3" cx="3270.93" cy="848.09" rx="30.51" ry="30.51"/>
			<circle class="st3" cx="3896.07" cy="889.59" r="30.51"/>
			
				<ellipse transform="matrix(0.9966 -0.0825 0.0825 0.9966 -95.8445 308.9526)" class="st4" cx="3691.45" cy="1314.52" rx="30.51" ry="30.51"/>
			
				<ellipse transform="matrix(0.9571 -0.2898 0.2898 0.9571 124.1001 1088.7009)" class="st3" cx="3738.39" cy="125.29" rx="30.51" ry="30.51"/>
			<circle class="st4" cx="2937.38" cy="74.68" r="30.51"/>
			
				<ellipse transform="matrix(0.9239 -0.3827 0.3827 0.9239 103.7067 1216.5751)" class="st3" cx="3109.92" cy="347.6" rx="30.51" ry="30.51"/>
			
				<ellipse transform="matrix(0.9871 -0.1602 0.1602 0.9871 -173.4614 639.4631)" class="st3" cx="3879.6" cy="1395.64" rx="30.51" ry="30.51"/>
			
				<ellipse transform="matrix(0.7071 -0.7071 0.7071 0.7071 -513.8884 2298.6409)" class="st3" cx="2517.76" cy="1769.64" rx="30.51" ry="30.51"/>
			<circle class="st4" cx="2753.53" cy="1800.45" r="30.51"/>
		</g>
	</g>
</g>
</svg>
